<?xml version="1.0" encoding="UTF-8"?>
<svg width="138px" height="25px" viewBox="0 0 138 25" version="1.1" xmlns="http://www.w3.org/2000/svg" xmlns:xlink="http://www.w3.org/1999/xlink">
    <!-- Generator: Sketch 62 (91390) - https://sketch.com -->
    <title>logo</title>
    <desc>Created with Sketch.</desc>
    <g id="design" stroke="none" stroke-width="1" fill="none" fill-rule="evenodd">
        <g id="marketing-site/" transform="translate(-20.000000, -30.000000)">
            <g id="Group-96">
                <g id="logo/-horizontal" transform="translate(20.000000, 30.000000)">
                    <g id="logo">
                        <g id="Group-20">
                            <path d="M89.7188603,4 L89.7188603,8.58333333 C91.2262344,7.5017486 93.1153048,7.09525889 94.934138,7.46111111 L94.934138,7.46111111 C97.5972309,8.00826959 99.6631446,10.1149395 100.155402,12.7881578 C100.64766,15.4613762 99.4676739,18.1657597 97.1731775,19.6230517 C94.8786811,21.0803438 91.9292084,20.9986828 89.7188603,19.4166667 L89.7188603,19.4166667 L89.7188603,20.6666667 L86.9410825,20.6666667 L86.9410825,4 L89.7188603,4 Z M79.1633047,4 L79.1633047,7.33333333 L81.1077492,7.33333333 L81.1077492,10.1111111 L79.1633047,10.1111111 L79.1633047,20.6666667 L76.3855269,20.6666667 L76.3855269,10.1111111 L74.4410825,10.1111111 L74.4410825,7.33333333 L76.3855269,7.33333333 L76.3855269,4 L79.1633047,4 Z M118.329971,4 L118.329971,20.6666667 L115.552194,20.6666667 L115.552194,4 L118.329971,4 Z M85.2744158,7.33333333 L85.2744158,20.6666667 L82.496638,20.6666667 L82.496638,7.33333333 L85.2744158,7.33333333 Z M104.441082,7.33333333 L104.441082,14.5555556 C104.439966,15.5621298 104.893761,16.5153051 105.675802,17.149028 C106.457843,17.782751 107.484372,18.0291482 108.46886,17.8194444 C110.034138,17.5055556 111.107749,16.0319444 111.107749,14.4305556 L111.107749,14.4305556 L111.107749,7.33333333 L113.885527,7.33333333 L113.885527,14.5555556 C113.885527,17.930629 111.149489,20.6666667 107.774416,20.6666667 L107.774416,20.6666667 L107.550381,20.6626363 C104.279092,20.5447494 101.663305,17.8556274 101.663305,14.5555556 L101.663305,14.5555556 L101.663305,7.33333333 L104.441082,7.33333333 Z M137.774416,7.33333333 L137.774416,20.6666667 L134.996638,20.6666667 L134.996638,7.33333333 L137.774416,7.33333333 Z M40.8299714,7.33333333 L44.0244158,16.3527778 L47.2188603,7.33333333 L50.2744158,7.33333333 L45.5521936,20.6666667 L42.496638,20.6666667 L37.7744158,7.33333333 L40.8299714,7.33333333 Z M124.766299,7.6012603 C127.112151,6.90741659 129.649592,7.55410794 131.377194,9.28611111 C132.291023,10.1954277 132.921162,11.3505226 133.191082,12.6111111 C133.383663,13.5270235 133.383663,14.4729765 133.191082,15.3888889 L133.191082,15.3888889 L123.03136,15.3888889 C123.502006,16.6196483 124.563867,17.5283657 125.852563,17.8032125 C127.141258,18.0780594 128.481471,17.6816451 129.413305,16.75 L129.413305,16.75 L131.377194,18.7138889 C130.128666,19.9666185 128.431961,20.6694961 126.663305,20.6666752 C124.650156,20.6688991 122.743806,19.7613095 121.47636,18.1972274 C120.208914,16.6331453 119.71612,14.5800878 120.135527,12.6111111 C120.643031,10.2180204 122.420446,8.295104 124.766299,7.6012603 Z M54.7662988,7.6012603 C57.1121513,6.90741659 59.6495917,7.55410794 61.3771936,9.28611111 C62.2910228,10.1954277 62.9211622,11.3505226 63.1910825,12.6111111 C63.3836626,13.5270235 63.3836626,14.4729765 63.1910825,15.3888889 L63.1910825,15.3888889 L53.0244158,15.3888889 C53.4941461,16.6223714 54.5574567,17.5334014 55.8483819,17.8084246 C57.1393071,18.0834478 58.4816108,17.6849182 59.4133047,16.75 L59.4133047,16.75 L61.3771936,18.7138889 C60.1286657,19.9666185 58.4319611,20.6694961 56.6633047,20.6666752 C54.6501562,20.6688991 52.7438056,19.7613095 51.4763598,18.1972274 C50.2089139,16.6331453 49.7161195,14.5800878 50.1355269,12.6111111 C50.6430306,10.2180204 52.4204462,8.295104 54.7662988,7.6012603 Z M68.7883047,7.33327285 C69.5861356,7.32942397 70.3734854,7.51507477 71.0855269,7.875 C71.8468081,8.23367672 72.5129324,8.76657617 73.0299714,9.43055556 L73.0299714,9.43055556 L71.3883047,11.2625 C70.5480269,10.4694444 69.359138,9.93472222 68.6744158,9.93472222 C68.2994158,9.93472222 67.9980269,10 67.7938603,10.1611111 C67.5776848,10.3286105 67.4585607,10.5923483 67.4758047,10.8652778 C67.4831106,11.0840491 67.553003,11.2961364 67.6771936,11.4763889 C67.8410825,11.6847222 68.0049714,11.8166667 68.5355269,12.0652778 L68.5355269,12.0652778 L69.759138,12.6486111 C71.046638,13.2541667 71.9410825,14 72.2744158,14.3625 C72.8146936,14.9416667 73.2744158,15.5222222 73.2744158,16.7152778 C73.2744158,17.8416667 72.9355269,18.8513889 72.0674714,19.6055556 C71.1994158,20.3597222 70.3549714,20.6666667 68.8952492,20.6666667 C67.2924714,20.6666667 65.5521936,19.8333333 64.1077492,18.4986111 L64.1077492,18.4986111 L65.6035825,16.5055556 C65.9952492,16.9402778 66.7313603,17.2916667 67.2577492,17.5597222 C67.7801069,17.8264048 68.3587608,17.9640435 68.9452492,17.9611111 C69.3855269,17.9611111 69.7980269,17.8638889 70.0674714,17.6625 C70.3369158,17.4611111 70.4133047,17.0847222 70.4133047,16.8208333 C70.4133047,16.3291667 69.9262677,15.8537037 68.9521936,15.3944444 L68.9521936,15.3944444 L67.8258047,14.8583333 C65.6730269,13.8203704 64.596638,12.5240741 64.596638,10.9694444 C64.596638,9.96666667 65.0008047,9.11111111 65.8133047,8.4 C66.6258047,7.68888889 67.5244158,7.33327285 68.7883047,7.33327285 Z M93.6077492,10.1111111 C91.4599751,10.1111111 89.7188603,11.852226 89.7188603,14 C89.7188603,16.147774 91.4599751,17.8888889 93.6077492,17.8888889 C95.7555232,17.8888889 97.496638,16.147774 97.496638,14 C97.496638,11.852226 95.7555232,10.1111111 93.6077492,10.1111111 Z M126.663305,10.1123432 C125.051879,10.1123432 123.60738,11.1061549 123.03136,12.6111111 L123.03136,12.6111111 L130.295249,12.6111111 C129.71923,11.1061549 128.27473,10.1123432 126.663305,10.1123432 Z M56.6633047,10.1123432 C55.0518793,10.1123432 53.6073799,11.1061549 53.0313603,12.6111111 L53.0313603,12.6111111 L60.2952492,12.6111111 C59.7192296,11.1061549 58.2747301,10.1123432 56.6633047,10.1123432 Z M85.2744158,4 L85.2744158,6.22222222 L82.496638,6.22222222 L82.496638,4 L85.2744158,4 Z M137.774416,4 L137.774416,6.22222222 L134.996638,6.22222222 L134.996638,4 L137.774416,4 Z" id="vestibulei-logo" fill="#1A202C"></path>
                            <path d="M12.3166883,-4.61852778e-14 L14.1222439,1.80555556 L4.33613279,11.6055556 L13.3930772,20.6638889 L24.0875217,9.96944444 C25.5675588,8.46518155 25.5577515,6.04889071 24.0655524,4.55669155 C22.5733532,3.06449239 20.1570624,3.05468513 18.6527995,4.53472222 L18.6527995,4.53472222 L12.4944661,10.6944444 L12.3910555,10.7934743 C12.0997817,11.1054175 11.9809001,11.5455866 12.0821574,11.9666556 C12.1946654,12.4345101 12.5599561,12.7998007 13.0278105,12.9123088 C13.495665,13.0248168 13.9870998,12.8655485 14.3000217,12.5 L14.3000217,12.5 L19.5514106,7.24305556 L21.3639106,9.05555556 L16.1139106,14.3055556 C14.5997997,15.7136259 12.2429987,15.6713302 10.7803856,14.2098388 C9.31777263,12.7483474 9.27366885,10.3915795 10.6805772,8.87638889 L10.6805772,8.87638889 L16.8389106,2.71527778 L16.9569661,2.6 C19.4283542,0.251667814 23.3064114,0.251667814 25.7777995,2.6 L25.7777995,2.6 L25.895855,2.71527778 C25.9361328,2.75555556 25.9736328,2.79305556 26.0111328,2.83333333 L26.0111328,2.83333333 C28.4058035,5.35092206 28.3546703,9.317134 25.8986328,11.7736111 L25.8986328,11.7736111 L13.2069661,24.4666667 C12.8666838,24.8078726 12.4041263,24.9988963 11.9222439,24.9972331 L11.9222439,24.9972331 L1.82502168,24.9777778 C0.829736696,24.9732157 0.0240282371,24.1675072 0.0194661257,23.1722222 L0.0194661257,23.1722222 L1.0770024e-05,13.0722222 C-0.00165239315,12.5903398 0.189371352,12.1277823 0.530577237,11.7875 L0.530577237,11.7875 L12.3166883,-4.61852778e-14 Z M2.53891057,13.4013889 L2.53891057,20.6513889 L4.34446613,22.4638889 L11.5944661,22.4597222 L2.53891057,13.4013889 Z" id="Caminho_200-path-2" fill="#F7C873"></path>
                        </g>
                    </g>
                </g>
            </g>
        </g>
    </g>
</svg>